<svg xmlns="http://www.w3.org/2000/svg" version="1.1" xmlns:xlink="http://www.w3.org/1999/xlink" xmlns:svgjs="http://svgjs.com/svgjs" width="1440" height="560" preserveAspectRatio="none" viewBox="0 0 1440 560"><g mask="url(&quot;#SvgjsMask1019&quot;)" fill="none"><rect width="1440" height="560" x="0" y="0" fill="#0e2a47"></rect><path d="M1004.1004721760585 151.86040843802715L989.8052692764232-11.534508383388442 826.4103524550076 2.760694516246815 840.7055553546429 166.1556113376624z" fill="rgba(28, 83, 142, 0.4)" class="triangle-float2"></path><path d="M166.98950685410696 597.8621181166592L247.01264202275604 622.3276457642287 243.69936590978585 490.06017918747034z" fill="rgba(28, 83, 142, 0.4)" class="triangle-float1"></path><path d="M485.35858008673205 93.96836393223035L412.7002202165501 183.69396593441851 575.0841820889202 166.6267238024123z" fill="rgba(28, 83, 142, 0.4)" class="triangle-float2"></path><path d="M1169.819,630.695C1197.04,631.34,1222.952,618.994,1237.746,596.134C1253.981,571.047,1260.864,538.855,1246.045,512.907C1231.13,486.792,1199.868,475.963,1169.819,477.194C1141.943,478.336,1116.955,494.193,1103.697,518.74C1091.067,542.123,1093.732,570.159,1107.247,593.042C1120.515,615.506,1143.736,630.077,1169.819,630.695" fill="rgba(28, 83, 142, 0.4)" class="triangle-float3"></path><path d="M612.507,387.696C631.385,388.561,646.926,373.207,654.916,356.081C661.811,341.302,656.423,325.072,648.332,310.913C640.157,296.606,628.972,282.521,612.507,281.865C595.139,281.173,579.296,292.376,571.372,307.847C564.058,322.127,568.989,338.216,576.337,352.479C584.597,368.512,594.49,386.87,612.507,387.696" fill="rgba(28, 83, 142, 0.4)" class="triangle-float2"></path><path d="M439.0313038880457 14.106478740736325L297.86311168055767 6.708167281740383 290.46480022156175 147.87635948922843 431.6329924290498 155.27467094822438z" fill="rgba(28, 83, 142, 0.4)" class="triangle-float2"></path><path d="M300.2298346297067 315.39549461117133L292.5419255079087 252.7824994164621 202.46638727674383 295.6208606965138z" fill="rgba(28, 83, 142, 0.4)" class="triangle-float2"></path><path d="M1191.1083682843366 590.7138152950748L1265.1272527905603 572.258834648458 1200.4353395675232 470.4579982124308z" fill="rgba(28, 83, 142, 0.4)" class="triangle-float1"></path><path d="M1095.6297195879818 338.6058044545432L1186.96983859025 308.9276007344487 1096.7824735089741 186.75652409109367z" fill="rgba(28, 83, 142, 0.4)" class="triangle-float3"></path><path d="M1199.6214654812643 254.58022060547188L1305.9223478549418 267.6323277713152 1272.350067416868 101.65495062787721z" fill="rgba(28, 83, 142, 0.4)" class="triangle-float1"></path><path d="M695.2181848572163 252.31834095324314L725.4960289883632 139.31988831215182 612.4975763472719 109.04204418100497 582.219732216125 222.04049682209632z" fill="rgba(28, 83, 142, 0.4)" class="triangle-float3"></path><path d="M917.2873718268622 496.04578893063893L826.4605386858676 480.0305676755758 810.4453174308045 570.8574008165704 901.2721505717991 586.8726220716335z" fill="rgba(28, 83, 142, 0.4)" class="triangle-float1"></path><path d="M69.50755357879102-99.09477599618123L-36.26013388102079 22.577030162412072 85.4116722775725 128.34471762222387 191.17935973738432 6.672911463630584z" fill="rgba(28, 83, 142, 0.4)" class="triangle-float2"></path><path d="M1405.623,590.384C1429.765,591.239,1455.903,587.132,1469.006,566.838C1483.027,545.122,1481.256,516.405,1467.531,494.501C1454.577,473.828,1430.016,466.055,1405.623,465.687C1380.419,465.307,1353.015,470.764,1340.395,492.584C1327.763,514.425,1335.566,541.617,1349.566,562.608C1361.968,581.203,1383.286,589.593,1405.623,590.384" fill="rgba(28, 83, 142, 0.4)" class="triangle-float3"></path><path d="M1261.589,237.037C1302.693,237.095,1343.216,220.433,1364.267,185.129C1385.796,149.023,1385.884,102.537,1362.692,67.476C1341.433,35.337,1300.052,27.561,1261.589,29.906C1227.64,31.976,1198.525,50.233,1179.8,78.627C1158.528,110.883,1141.688,150.506,1159.414,184.839C1178.22,221.262,1220.598,236.979,1261.589,237.037" fill="rgba(28, 83, 142, 0.4)" class="triangle-float1"></path><path d="M1308.4726278301343 225.04663158186975L1305.2861785721202 316.2945996075219 1396.5341465977724 319.4810488655361 1399.7205958557865 228.2330808398839z" fill="rgba(28, 83, 142, 0.4)" class="triangle-float2"></path><path d="M319.7150288607993 294.0621040630598L184.24616593308653 195.63821392554766 85.8222757955744 331.1070768532604 221.29113872328716 429.5309669907725z" fill="rgba(28, 83, 142, 0.4)" class="triangle-float1"></path><path d="M789.2512122005027 346.8666386737798L843.560318650658 440.93277035911535 957.5049629535838 312.43604484121454z" fill="rgba(28, 83, 142, 0.4)" class="triangle-float2"></path><path d="M1129.5365908657348 258.52257303455247L1152.4840477525756 128.38107798575118 1022.3425527037742 105.43362109891038 999.3950958169335 235.57511614771167z" fill="rgba(28, 83, 142, 0.4)" class="triangle-float1"></path><path d="M400.9660562935548 285.32771997208334L376.0201689092806 372.32436795043 487.96270427190143 310.27360735635756z" fill="rgba(28, 83, 142, 0.4)" class="triangle-float2"></path></g><defs><mask id="SvgjsMask1019"><rect width="1440" height="560" fill="#ffffff"></rect></mask><style>
            @keyframes float1 {
                0%{transform: translate(0, 0)}
                50%{transform: translate(-10px, 0)}
                100%{transform: translate(0, 0)}
            }

            .triangle-float1 {
                animation: float1 5s infinite;
            }

            @keyframes float2 {
                0%{transform: translate(0, 0)}
                50%{transform: translate(-5px, -5px)}
                100%{transform: translate(0, 0)}
            }

            .triangle-float2 {
                animation: float2 4s infinite;
            }

            @keyframes float3 {
                0%{transform: translate(0, 0)}
                50%{transform: translate(0, -10px)}
                100%{transform: translate(0, 0)}
            }

            .triangle-float3 {
                animation: float3 6s infinite;
            }
        </style></defs></svg>